Simulation
nRows=44
nColumns=15
endheader
time  TH_x TH_y TH_z SC_y  SC_z  SC_x  AC_y  AC_z  AC_x  GH_y  GH_z  GH_yy  EL_x  PS_y
5.745  0.000000  0.000000  0.000000  -56.65673927792157  13.957910014764105  26.05148040301683  52.614063466937374  11.053753584538761  10.922193553119659  34.38132910171836  49.11028797371166  -43.33422519158966  18.478986599797828  120.000000
5.7833000000000006  0.000000  0.000000  0.000000  -55.894568103600186  13.703711930963534  25.024348041131972  52.32316045616768  10.835047726305632  10.204495832577496  35.077594937866415  48.05299939439093  -43.823924595231865  18.667357394422382  120.000000
5.8216  0.000000  0.000000  0.000000  -55.026894542706295  13.368861127021583  23.782540886092235  52.015059223974504  10.596731570516809  9.420304156604683  35.83949505775819  46.803116916149165  -44.2675423987702  18.913109676293725  120.000000
5.8599  0.000000  0.000000  0.000000  -54.07556421245197  12.944497426448802  22.343667985422808  51.70006552083022  10.33544146914004  8.594887073829673  36.624484519771435  45.37675382602464  -44.62877311096571  19.194597162531156  120.000000
5.8982  0.000000  0.000000  0.000000  -53.05962997986412  12.424170606483031  20.72822077228933  51.38376554275557  10.049116212393804  7.7541494199733085  37.38840064132404  43.79622537058428  -44.86851854348429  19.48219970403103  120.000000
5.9365000000000006  0.000000  0.000000  0.000000  -51.99558890594006  11.804963316847536  18.959401275128485  51.06631645796991  9.737479966174647  6.923637913890909  38.08676445075216  42.088316849912296  -44.948088909472844  19.74224186818483  120.000000
5.9748  0.000000  0.000000  0.000000  -50.89842018163892  11.088729093402165  17.06320083862368  50.743677815078556  9.402451082218967  6.12767849095521  38.67741552089587  40.282670184618055  -44.83324708379061  19.941482532599338  120.000000
6.0131  0.000000  0.000000  0.000000  -49.782359879625766  10.282990102216766  15.068718642819714  50.40992743845731  9.048706089027325  5.388836992430857  39.124860939460625  38.4102841477007  -44.49888506600676  20.051921058862078  120.000000
6.0514  0.000000  0.000000  0.000000  -48.661718684089365  9.40090884077141  13.00828489057774  50.05961702940852  8.684286895318579  4.727122476275826  39.40496408804076  36.501935920005636  -43.933474546094835  20.054984235344662  120.000000
6.089700000000001  0.000000  0.000000  0.000000  -47.551629108552945  8.460699735818492  10.917052048135632  49.69011804736233  8.321045551518583  4.158773254353675  39.5094472909356  34.5866581129832  -43.142831507648495  19.943577595839475  120.000000
6.128  0.000000  0.000000  0.000000  -46.468073218040686  7.4843289990751325  8.83184996881574  49.30370949327286  7.974377790568956  3.6953584129560975  39.44976233923055  32.69072928561292  -42.152960088299956  19.721118351150825  120.000000
6.1663  0.000000  0.000000  0.000000  -45.42734982654524  6.495779860640408  6.789362509464101  48.90883173305238  7.662017686197385  3.3434367358144885  39.2597885356855  30.836897874661716  -41.01155865639983  19.398662779615194  120.000000
6.2046  0.000000  0.000000  0.000000  -44.445283398709755  5.519128377587599  4.823837009666107  48.51894768142356  7.402341066483498  3.1042816988861226  38.9943507866895  29.0431382221207  -39.78555753534186  18.99199507944974  120.000000
6.242900000000001  0.000000  0.000000  0.000000  -43.53602848393235  4.576690195352597  2.96482067987299  48.14988291259142  7.212423404950056  2.9737150890763147  38.7236288989798  27.321662526382642  -38.554795087758954  18.519721323314354  120.000000
6.2812  0.000000  0.000000  0.000000  -42.71002044750426  3.6875750791100517  1.2354427535256707  47.817185463884186  7.105864751748438  2.9428140627781296  38.525768190012414  25.67892215493781  -37.40364403566503  18.002726406986877  120.000000
6.3195  0.000000  0.000000  0.000000  -41.97173841535252  2.8667512372020267  -0.3483802431379533  47.533703417145425  7.090987472209826  2.9993346973180506  38.47881675023546  24.116450817880104  -36.41207401402746  17.464206360386626  120.000000
6.3578  0.000000  0.000000  0.000000  -41.31905534415486  2.1243493750061413  -1.777491843243245  47.307590121739416  7.170096123968729  3.129473439309383  38.65288772493816  22.63229919756037  -35.647849570680904  16.929201230709218  120.000000
6.396100000000001  0.000000  0.000000  0.000000  -40.74432761284259  1.4659425980092198  -3.048514693452576  47.14185803755989  7.339832862385092  3.3190897534756987  39.10457389201014  21.222992690623656  -35.1619007834756  16.423593134804598  120.000000
6.4344  0.000000  0.000000  0.000000  -40.23613367656566  0.8933397339857413  -4.163015184006542  47.0355280794732  7.592267500291726  3.554057477398693  39.873801716633224  19.88575995296273  -34.987106680335756  15.972610825442667  120.000000
6.4727  0.000000  0.000000  0.000000  -39.781589000935476  0.4049482927915633  -5.126548560625149  46.98435238402239  7.916100556549791  3.820820678334098  40.98177495671458  18.620150365103818  -35.13870649339227  15.598785160832906  120.000000
6.511  0.000000  0.000000  0.000000  -39.36827144852191  -0.0032636875575088567  -5.947981600828207  46.9808620612724  8.297229242024441  4.107271767490337  42.42957778650781  17.42818340316047  -35.61543753256571  15.319288220283994  120.000000
6.549300000000001  0.000000  0.000000  0.000000  -38.98528777693681  -0.33656714193895354  -6.6392115042817395  47.015037316080885  8.719336527573208  4.4029250460348175  44.19796343690242  16.31367929225422  -36.40126937023411  15.143677892179955  120.000000
6.5876  0.000000  0.000000  0.000000  -38.62446087161633  -0.6010667296115297  -7.214545904661051  47.07544811665142  9.165091813480029  4.6987876739717676  46.24799144413938  15.281445346186503  -37.466558402269435  15.073653659470898  120.000000
6.6259  0.000000  0.000000  0.000000  -38.28054185799713  -0.8033863063389874  -7.689764371813494  47.1498657384411  9.617256829724786  4.987573194228636  48.522501411546195  14.3358852941905  -38.76838353265593  15.104543226809817  120.000000
6.6642  0.000000  0.000000  0.000000  -37.95086750037259  -0.950246382767342  -8.081138750679463  47.22606405086831  10.059653706191769  5.263826543724145  50.9492379334554  13.479472692642647  -40.25134494229776  15.227310411733583  120.000000
6.702500000000001  0.000000  0.000000  0.000000  -37.634686508855445  -1.0481776699377385  -8.404536413796457  47.29299553923892  10.478014736989223  5.523811859961132  53.44687642390383  12.711667832594076  -41.85074694006236  15.429750291305169  120.000000
6.7408  0.000000  0.000000  0.000000  -37.33236825027482  -1.103504442825668  -8.674524342822755  47.34205215090479  10.860741712077782  5.765339503361106  55.93313948934668  12.028332390339893  -43.497944645738414  15.69650256043382  120.000000
6.7791  0.000000  0.000000  0.000000  -37.04485983731728  -1.1223267048520882  -8.903512870672326  47.36784198180111  11.19945543577685  5.987750862500044  58.33403406454214  11.421694667116627  -45.127303798268365  16.00841742611229  120.000000
6.8174  0.000000  0.000000  0.000000  -36.77304619200939  -1.1107079755021083  -9.101362144980255  47.368681405302745  11.489289075085928  6.19156560673555  60.591788625748094  10.881182085370314  -46.683265266086934  16.34232233355144  120.000000
6.855700000000001  0.000000  0.000000  0.000000  -36.517456815441086  -1.0749736458050871  -9.275488734580302  47.34644612771855  11.728823717479472  6.37790355307696  62.669462228286875  10.39503821060116  -48.1256963264842  16.672087586718806  120.000000
6.894  0.000000  0.000000  0.000000  -36.278534762938136  -1.0216969553396442  -9.431190923938402  47.30538843368059  11.919529456688947  6.548258595681695  64.55056655673425  9.95187306988184  -49.43144134737689  16.97090526952416  120.000000
6.9323  0.000000  0.000000  0.000000  -36.056903206335804  -0.9574315270576244  -9.572158481945692  47.25085659258528  12.065141611976065  6.704124093937944  66.23504795722668  9.541875424356451  -50.592581711359365  17.214461857181913  120.000000
6.9706  0.000000  0.000000  0.000000  -35.85346928163735  -0.8884046082136599  -9.701111330258177  47.188733443618574  12.171145048458008  6.8462137285847104  67.73304640198533  9.15781800252357  -51.61248320955058  17.384964557208505  120.000000
7.008900000000001  0.000000  0.000000  0.000000  -35.66994596058521  -0.8202400411310194  -9.820102262392414  47.124465621428406  12.244194221659884  6.974149584481173  69.05794032841965  8.795351853694193  -52.500581456950435  17.47529015231706  120.000000
7.0472  0.000000  0.000000  0.000000  -35.50920253069245  -0.7576129544811525  -9.930479499664669  47.06179327417586  12.291352276468235  7.086856019687592  70.22033616916829  8.452512055907277  -53.267203611485385  17.491295763726285  120.000000
7.0855  0.000000  0.000000  0.000000  -35.375131343654004  -0.7042286748630692  -10.032862413283583  47.0024569522792  12.31947627518346  7.182882941391657  71.22494312646302  8.129381015006343  -53.920216515079424  17.450514866484678  120.000000
7.1238  0.000000  0.000000  0.000000  -35.27178735214375  -0.6626432807811807  -10.127265631734636  46.94690787317615  12.3347312920534  7.260528664016366  72.07020526429284  7.827762233441851  -54.463532839552926  17.378036334581303  120.000000
7.162100000000001  0.000000  0.000000  0.000000  -35.20261699682477  -0.6340689348754897  -10.21318529808425  46.89477818129494  12.342185969322376  7.318185574217514  72.75002275881008  7.550482739433726  -54.897111674848944  17.301424568287356  120.000000
7.2004  0.000000  0.000000  0.000000  -35.16967936184247  -0.618506644882376  -10.289641029727191  46.84517301083336  12.345508522821742  7.354737070766294  73.2562836836971  7.30043642142981  -55.21769309637376  17.245723395124372  120.000000
7.2387  0.000000  0.000000  0.000000  -35.172829790799234  -0.6148702048403887  -10.35511989410773  46.79713389488447  12.346799481158248  7.369788248844615  73.58303194107448  7.079743393737345  -55.42122277490749  17.22907624778769  120.000000
7.277  0.000000  0.000000  0.000000  -35.20905113234936  -0.6210478133655154  -10.407688208767363  46.75008190547466  12.346678572911262  7.363913617459526  73.73063132261841  6.889112262877956  -55.5058859490793  17.25995116422818  120.000000
7.315300000000001  0.000000  0.000000  0.000000  -35.27261109007957  -0.6341467094872416  -10.445316568120639  46.703877231832166  12.34469015909935  7.3387425525565435  73.70825275442857  6.727506481065151  -55.47443464665576  17.337145531436217  120.000000
7.3536  0.000000  0.000000  0.000000  -35.35596108235684  -0.6508612971430733  -10.466229890193294  46.65863480826717  12.33975241274433  7.296740295930912  73.53324051209425  6.592147424227788  -55.33449207395803  17.452369663016427  120.000000
7.3919  0.000000  0.000000  0.000000  -35.45089673659558  -0.667822596958721  -10.46917837960844  46.614522609626654  12.330588401421505  7.240819220979872  73.22900042581487  6.478870869150633  -55.09787428080708  17.593690946643743  120.000000
